{"asset":{"version":"2.0","generator":"antenna-generator"},"scene":0,"scenes":[{"nodes":[0]}],"nodes":[{"mesh":0}],"meshes":[{"primitives":[{"attributes":{"POSITION":0,"NORMAL":1},"indices":2,"material":0}]}],"materials":[{"pbrMetallicRoughness":{"baseColorFactor":[0.7,0.75,0.8,1],"metallicFactor":0.6,"roughnessFactor":0.4},"name":"antenna_material"}],"accessors":[{"bufferView":0,"componentType":5126,"count":1272,"type":"VEC3","max":[1.3200000524520874,0.9749999642372131,1.3200000524520874],"min":[-1.3200000524520874,-1.899999976158142,-1.3200000524520874]},{"bufferView":1,"componentType":5126,"count":1272,"type":"VEC3"},{"bufferView":2,"componentType":5123,"count":3492,"type":"SCALAR"}],"bufferViews":[{"buffer":0,"byteOffset":0,"byteLength":15264,"target":34962},{"buffer":0,"byteOffset":15264,"byteLength":15264,"target":34962},{"buffer":0,"byteOffset":30528,"byteLength":6984,"target":34963}],"buffers":[{"uri":"data:application/octet-stream;base64,","byteLength":37512}]}