{"asset":{"version":"2.0","generator":"antenna-generator"},"scene":0,"scenes":[{"nodes":[0]}],"nodes":[{"mesh":0}],"meshes":[{"primitives":[{"attributes":{"POSITION":0,"NORMAL":1},"indices":2,"material":0}]}],"materials":[{"pbrMetallicRoughness":{"baseColorFactor":[0.7,0.75,0.8,1],"metallicFactor":0.6,"roughnessFactor":0.4},"name":"antenna_material"}],"accessors":[{"bufferView":0,"componentType":5126,"count":772,"type":"VEC3","max":[0.25,2.174999952316284,0.25],"min":[-0.25,-0.23999999463558197,-0.25]},{"bufferView":1,"componentType":5126,"count":772,"type":"VEC3"},{"bufferView":2,"componentType":5123,"count":2064,"type":"SCALAR"}],"bufferViews":[{"buffer":0,"byteOffset":0,"byteLength":9264,"target":34962},{"buffer":0,"byteOffset":9264,"byteLength":9264,"target":34962},{"buffer":0,"byteOffset":18528,"byteLength":4128,"target":34963}],"buffers":[{"uri":"data:application/octet-stream;base64,","byteLength":22656}]}