{"asset":{"version":"2.0","generator":"antenna-generator"},"scene":0,"scenes":[{"nodes":[0]}],"nodes":[{"mesh":0}],"meshes":[{"primitives":[{"attributes":{"POSITION":0,"NORMAL":1},"indices":2,"material":0}]}],"materials":[{"pbrMetallicRoughness":{"baseColorFactor":[0.7,0.75,0.8,1],"metallicFactor":0.6,"roughnessFactor":0.4},"name":"antenna_material"}],"accessors":[{"bufferView":0,"componentType":5126,"count":618,"type":"VEC3","max":[0.4000000059604645,2.200000047683716,0.11500000208616257],"min":[-0.4000000059604645,-0.14499999582767487,-0.4699999988079071]},{"bufferView":1,"componentType":5126,"count":618,"type":"VEC3"},{"bufferView":2,"componentType":5123,"count":1044,"type":"SCALAR"}],"bufferViews":[{"buffer":0,"byteOffset":0,"byteLength":7416,"target":34962},{"buffer":0,"byteOffset":7416,"byteLength":7416,"target":34962},{"buffer":0,"byteOffset":14832,"byteLength":2088,"target":34963}],"buffers":[{"uri":"data:application/octet-stream;base64,","byteLength":16920}]}