{"asset":{"version":"2.0","generator":"antenna-generator"},"scene":0,"scenes":[{"nodes":[0]}],"nodes":[{"mesh":0}],"meshes":[{"primitives":[{"attributes":{"POSITION":0,"NORMAL":1},"indices":2,"material":0}]}],"materials":[{"pbrMetallicRoughness":{"baseColorFactor":[0.7,0.75,0.8,1],"metallicFactor":0.6,"roughnessFactor":0.4},"name":"antenna_material"}],"accessors":[{"bufferView":0,"componentType":5126,"count":706,"type":"VEC3","max":[0.28999999165534973,0.8999999761581421,0.1899999976158142],"min":[-0.28999999165534973,-0.07999999821186066,-0.20999999344348907]},{"bufferView":1,"componentType":5126,"count":706,"type":"VEC3"},{"bufferView":2,"componentType":5123,"count":1488,"type":"SCALAR"}],"bufferViews":[{"buffer":0,"byteOffset":0,"byteLength":8472,"target":34962},{"buffer":0,"byteOffset":8472,"byteLength":8472,"target":34962},{"buffer":0,"byteOffset":16944,"byteLength":2976,"target":34963}],"buffers":[{"uri":"data:application/octet-stream;base64,","byteLength":19920}]}