{"asset":{"version":"2.0","generator":"antenna-generator"},"scene":0,"scenes":[{"nodes":[0]}],"nodes":[{"mesh":0}],"meshes":[{"primitives":[{"attributes":{"POSITION":0,"NORMAL":1},"indices":2,"material":0}]}],"materials":[{"pbrMetallicRoughness":{"baseColorFactor":[0.7,0.75,0.8,1],"metallicFactor":0.6,"roughnessFactor":0.4},"name":"antenna_material"}],"accessors":[{"bufferView":0,"componentType":5126,"count":392,"type":"VEC3","max":[0.800000011920929,4.130000114440918,0.07999999821186066],"min":[-0.800000011920929,0,-0.07999999821186066]},{"bufferView":1,"componentType":5126,"count":392,"type":"VEC3"},{"bufferView":2,"componentType":5123,"count":744,"type":"SCALAR"}],"bufferViews":[{"buffer":0,"byteOffset":0,"byteLength":4704,"target":34962},{"buffer":0,"byteOffset":4704,"byteLength":4704,"target":34962},{"buffer":0,"byteOffset":9408,"byteLength":1488,"target":34963}],"buffers":[{"uri":"data:application/octet-stream;base64,","byteLength":10896}]}